<svg xmlns="http://www.w3.org/2000/svg" viewBox="0 0 24 24" id="microchip"><path fill="#303c42" d="M22.5 9.5a.5.5 0 0 0 0-1H21v-2h1.5a.5.5 0 0 0 0-1H21V5c0-1.103-.897-2-2-2h-.5V1.5a.5.5 0 0 0-1 0V3h-2V1.5a.5.5 0 0 0-1 0V3h-2V1.5a.5.5 0 0 0-1 0V3h-2V1.5a.5.5 0 0 0-1 0V3h-2V1.5a.5.5 0 0 0-1 0V3H5c-1.103 0-2 .897-2 2v.5H1.5a.5.5 0 0 0 0 1H3v2H1.5a.5.5 0 0 0 0 1H3v2H1.5a.5.5 0 0 0 0 1H3v2H1.5a.5.5 0 0 0 0 1H3v2H1.5a.5.5 0 0 0 0 1H3v.5c0 1.103.897 2 2 2h.5v1.5a.5.5 0 0 0 1 0V21h2v1.5a.5.5 0 0 0 1 0V21h2v1.5a.5.5 0 0 0 1 0V21h2v1.5a.5.5 0 0 0 1 0V21h2v1.5a.5.5 0 0 0 1 0V21h.5c1.103 0 2-.897 2-2v-.5h1.5a.5.5 0 0 0 0-1H21v-2h1.5a.5.5 0 0 0 0-1H21v-2h1.5a.5.5 0 0 0 0-1H21v-2h1.5z"></path><path fill="#7cb342" d="M20 19c0 .551-.449 1-1 1H5c-.551 0-1-.449-1-1V5c0-.551.449-1 1-1h14c.551 0 1 .449 1 1v14z"></path><path fill="#fff" d="M4.5 19.5v-14c0-.551.449-1 1-1h14a.98.98 0 0 1 .408.092A.999.999 0 0 0 19 4H5c-.551 0-1 .449-1 1v14c0 .405.245.751.592.908A.98.98 0 0 1 4.5 19.5z" opacity=".2"></path><path fill="#303c42" d="M18.5 5h-13a.5.5 0 0 0-.5.5v13a.5.5 0 0 0 .5.5h13a.5.5 0 0 0 .5-.5v-13a.5.5 0 0 0-.5-.5z"></path><path fill="#f2f2f2" d="M6 6h12v12H6z"></path><path fill="#f2f2f2" d="M6 6h12v12H6z"></path><linearGradient id="a" x1="12.005" x2="19.705" y1="12.008" y2="19.708" gradientUnits="userSpaceOnUse"><stop offset="0" stop-opacity=".1"></stop><stop offset="1" stop-opacity="0"></stop></linearGradient><path fill="url(#a)" d="M18.87 5.17c.078.088.13.202.13.33v13a.5.5 0 0 1-.5.5h-13a.5.5 0 0 1-.346-.141L6.295 20H19c.551 0 1-.449 1-1V6.3l-1.13-1.13z"></path><path fill="#303c42" d="M9.75 14H8.5a.5.5 0 0 0 0 1h1.25a1.752 1.752 0 0 0 1.224-3A1.752 1.752 0 0 0 9.75 9H8.5a.5.5 0 0 0 0 1h1.25a.75.75 0 0 1 0 1.5H9.5a.5.5 0 0 0 0 1h.25a.75.75 0 0 1 0 1.5zM13 11.25a.5.5 0 0 0 .5-.5.75.75 0 0 1 1.5 0c0 .367-.129.725-.364 1.006l-2.02 2.424A.498.498 0 0 0 13 15h2.5a.5.5 0 0 0 0-1h-1.433l1.337-1.604c.385-.46.596-1.045.596-1.646C16 9.785 15.215 9 14.25 9s-1.75.785-1.75 1.75a.5.5 0 0 0 .5.5z"></path><linearGradient id="b" x1=".624" x2="23.376" y1="6.695" y2="17.305" gradientUnits="userSpaceOnUse"><stop offset="0" stop-color="#fff" stop-opacity=".2"></stop><stop offset="1" stop-color="#fff" stop-opacity="0"></stop></linearGradient><path fill="url(#b)" d="M22.5 9.5a.5.5 0 0 0 0-1H21v-2h1.5a.5.5 0 0 0 0-1H21V5c0-1.103-.897-2-2-2h-.5V1.5a.5.5 0 0 0-1 0V3h-2V1.5a.5.5 0 0 0-1 0V3h-2V1.5a.5.5 0 0 0-1 0V3h-2V1.5a.5.5 0 0 0-1 0V3h-2V1.5a.5.5 0 0 0-1 0V3H5c-1.103 0-2 .897-2 2v.5H1.5a.5.5 0 0 0 0 1H3v2H1.5a.5.5 0 0 0 0 1H3v2H1.5a.5.5 0 0 0 0 1H3v2H1.5a.5.5 0 0 0 0 1H3v2H1.5a.5.5 0 0 0 0 1H3v.5c0 1.103.897 2 2 2h.5v1.5a.5.5 0 0 0 1 0V21h2v1.5a.5.5 0 0 0 1 0V21h2v1.5a.5.5 0 0 0 1 0V21h2v1.5a.5.5 0 0 0 1 0V21h2v1.5a.5.5 0 0 0 1 0V21h.5c1.103 0 2-.897 2-2v-.5h1.5a.5.5 0 0 0 0-1H21v-2h1.5a.5.5 0 0 0 0-1H21v-2h1.5a.5.5 0 0 0 0-1H21v-2h1.5z"></path></svg>